<svg width="2260" height="840" viewBox="0 0 2260 840" fill="none" xmlns="http://www.w3.org/2000/svg">
<rect y="318" width="600" height="80" rx="40" transform="rotate(-30 0 318)" fill="#3B82F6"/>
<rect x="970" y="387" width="600" height="80" rx="40" transform="rotate(-150 970 387)" fill="#3B82F6"/>
<rect x="770" y="830" width="600" height="80" rx="40" transform="rotate(-90 770 830)" fill="#3B82F6"/>
<rect x="140" y="830" width="820" height="80" rx="40" transform="rotate(-90 140 830)" fill="#3B82F6"/>
<rect x="850" y="830" width="710" height="80" rx="40" transform="rotate(-180 850 830)" fill="#3B82F6"/>
<path d="M1273 236.4C1312.2 262.8 1344.4 286.6 1369.6 307.8C1404 282.6 1436 252.6 1465.6 217.8H1164.4V163.8H1538.8V209.4C1500 261.4 1456.8 305.6 1409.2 342C1411.2 343.6 1414.2 346.4 1418.2 350.4H1609V399.6C1579 446 1544 486.6 1504 521.4L1458.4 481.2C1484.8 461.6 1512 436.2 1540 405H1393.6V631.8C1393.6 674.2 1373.8 695.4 1334.2 695.4H1247.2L1234 639.6C1262.4 642 1289.2 643.2 1314.4 643.2C1329.2 643.2 1336.6 634.6 1336.6 617.4V405H1107.4V350.4H1340.8C1311.2 326 1275.6 300.6 1234 274.2L1273 236.4ZM2025.4 475.2C2034.6 502.8 2039.4 532.8 2039.8 565.2C2039.8 613.2 2033 646.4 2019.4 664.8C2003.8 686.4 1968.8 697.2 1914.4 697.2H1895.2L1876 646.8H1906.6C1940.2 646.8 1961.2 642.2 1969.6 633C1979.6 620.6 1984.6 598 1984.6 565.2L1984 547.8C1920 595.8 1835.2 636.2 1729.6 669L1700.8 620.4C1817.6 587.6 1908.8 545.2 1974.4 493.2C1971.2 482.8 1966.8 471.2 1961.2 458.4C1905.2 500 1830.4 534.4 1736.8 561.6L1708.6 512.4C1807 487.2 1883.2 455.2 1937.2 416.4C1928.4 404.8 1922.6 397.4 1919.8 394.2L1913.8 397.2C1875 415.6 1820 435.4 1748.8 456.6L1720 409.2C1775.2 397.6 1826.8 382 1874.8 362.4C1891.6 355.2 1905.4 349 1916.2 343.8H1781.8V291H2138.2V343.8H2005C1990.6 353.4 1976.8 362.4 1963.6 370.8C1980.4 389.6 1995 410 2007.4 432C2060.6 416.4 2111 393.4 2158.6 363L2197 401.4C2166.2 421 2133 438 2097.4 452.4C2124.6 522 2169.2 578.6 2231.2 622.2L2190.4 669.6C2126.8 616.4 2080.6 549.4 2051.8 468.6L2025.4 475.2ZM1973.8 139.8C1979.8 153.4 1986 170.8 1992.4 192H2217.4V303.6H2160.4V244.8H1759.6V303.6H1702.6V192H1934.8C1929.6 178.4 1923.2 164.4 1915.6 150L1973.8 139.8Z" fill="white"/>
</svg>
